<?xml version="1.0" standalone="no"?>
<!DOCTYPE svg PUBLIC "-//W3C//DTD SVG 20010904//EN"
 "http://www.w3.org/TR/2001/REC-SVG-20010904/DTD/svg10.dtd">
<svg version="1.0" xmlns="http://www.w3.org/2000/svg"
 width="514.000000pt" height="514.000000pt" viewBox="0 0 514.000000 514.000000"
 preserveAspectRatio="xMidYMid meet">
<metadata>
Created by potrace 1.11, written by Peter Selinger 2001-2013
</metadata>
<g transform="translate(0.000000,514.000000) scale(0.100000,-0.100000)"
fill="#000000" stroke="none">
<path d="M2300 5119 c-25 -3 -67 -9 -95 -13 -220 -30 -441 -91 -655 -181 -61
-25 -126 -56 -160 -76 -8 -5 -24 -13 -36 -18 -68 -30 -340 -210 -401 -265 -6
-6 -31 -27 -54 -46 -110 -89 -299 -291 -394 -420 -181 -246 -322 -530 -404
-813 -17 -56 -32 -113 -35 -127 -2 -14 -11 -56 -19 -95 -16 -73 -22 -115 -35
-225 -9 -83 -8 -489 1 -555 4 -27 10 -68 13 -90 40 -304 167 -659 340 -946
227 -377 544 -685 929 -905 104 -59 168 -90 330 -159 93 -40 338 -111 440
-129 17 -3 57 -10 90 -15 192 -34 599 -36 780 -6 208 36 357 74 524 137 119
43 311 135 386 182 28 18 57 35 65 38 32 12 249 174 340 253 81 71 189 180
270 275 12 14 52 66 90 115 200 268 342 560 425 880 47 179 68 308 80 475 4
57 7 289 5 303 -5 22 -3 54 4 65 4 6 2 12 -3 12 -6 0 -11 15 -11 33 0 59 -25
208 -65 391 -44 197 -173 506 -295 706 -49 79 -156 233 -183 263 -7 7 -37 42
-67 77 -267 316 -666 595 -1045 729 -49 18 -101 37 -114 42 -13 5 -51 17 -85
25 -34 8 -68 17 -76 19 -75 22 -214 46 -370 65 -86 10 -443 9 -510 -1z"/>
</g>
</svg>
